<svg xmlns="http://www.w3.org/2000/svg" svg-type="board" viewBox="0 0 574 224" width="100%" height="100%" xmlns:xlink="http://www.w3.org/1999/xlink" version="1.1" preserveAspectRatio="xMinYMin meet">
			<g><line class="dash hide" x1="0" y1="0" x2="0" y2="0" stroke-dasharray="3, 3" id="line0"></line><line class="dash hide" x1="0" y1="0" x2="0" y2="0" stroke-dasharray="3, 3" id="line1"></line></g><g class="wire " id="wire-4" svg-comp="wire"><line svg-type="line" line="1" x1="30" y1="115" x2="16" y2="115"></line><line svg-type="line" line="2" x1="16" y1="115" x2="16" y2="202"></line><line svg-type="line" line="3" x1="16" y1="202" x2="361" y2="202"></line><line svg-type="line" line="4" x1="361" y1="202" x2="361" y2="115"></line><line svg-type="line" line="5" x1="361" y1="115" x2="340" y2="115"></line><polyline svg-type="line" line="0" points="30, 115 16, 115 16, 202 361, 202 361, 115 340, 115" class="hide"></polyline></g><g class="wire " id="wire-3" svg-comp="wire"><polyline svg-type="line" line="0" points="230, 115 230, 170 190, 170"></polyline></g><g class="wire " id="wire-2" svg-comp="wire"><polyline svg-type="line" line="0" points="190, 60 230, 60 230, 115 277, 115"></polyline></g><g class="wire " id="wire-1" svg-comp="wire"><polyline svg-type="line" line="0" points="118, 115 118, 170 150, 170"></polyline></g><g class="wire " id="wire-0" svg-comp="wire"><polyline svg-type="line" line="0" points="90, 115 118, 115 118, 60 150, 60"></polyline></g><rect class="dash hide" x="0" y="0" width="0" height="0" stroke-dasharray="3, 3" id="selection-rect"></rect><g class="ec " id="resistor-1" svg-comp="resistor" transform="translate(150 50)"><rect svg-type="body" x="0" y="0" width="40" height="20"></rect></g><g class="label" transform="translate(160 40)"><text font-size="15" x="0" y="0">R1</text></g><g class="ec " id="variable-resistor-1" svg-comp="resistor" transform="translate(150 150)"><rect svg-type="body" x="0" y="10" width="40" height="20"></rect><path class="thick no-fill" d="M 0,40 L 41,4.5 L 37,0 H45 V8 L 41,4.5"></path></g><g class="label" transform="translate(160 145)"><text font-size="15" x="0" y="0">VR1</text></g><g class="ec " id="3v3-0" svg-comp="power" transform="translate(30 75)"><circle svg-type="body" cx="30" cy="40" r="30"></circle><path class="no-fill" d="M 0,10 H 10"></path><path class="no-fill" d="M 65,10 H55 M 60,5 V15"></path><text x="5" y="48" class="middle">3V3</text></g><g class="ec " id="led-0" svg-comp="diode" transform="translate(277 85)"><path svg-type="body" d="M 0,0 L 60,30 L 0,60 Z"></path><line class="thick" x1="63" y1="0" x2="63" y2="60"></line><path class="thick" d="M 32,12 L 36.8,4.6 L 33,2 L 40,0 L 40,7.2 L 36.8,4.6"></path><path class="thick" d="M 45,19 L 49,13 L 45,10.2 L 52,8  L 52.9,15.5 L 49,13"></path></g><g class="tooltip hide" id="tooltip" transform="translate(305 217)"><rect x="0" y="0" rx="4" width="42" height="20"></rect><text font-size="11.55" x="4" y="11.55"></text></g><g class="h-node hide" id="highlighNode" svg-comp="h-node"><circle svg-type="node" r="5"></circle></g></svg>