<svg xmlns="http://www.w3.org/2000/svg" svg-type="board" viewBox="0 0 574 224" width="100%" height="100%" xmlns:xlink="http://www.w3.org/1999/xlink" version="1.1" preserveAspectRatio="xMinYMin meet">
			<g><line class="dash hide" x1="0" y1="0" x2="0" y2="0" stroke-dasharray="3, 3" id="line0"></line><line class="dash hide" x1="0" y1="0" x2="0" y2="0" stroke-dasharray="3, 3" id="line1"></line></g><g class="wire " id="wire-4" svg-comp="wire"><line svg-type="line" line="1" x1="35" y1="120" x2="19" y2="120"></line><line svg-type="line" line="2" x1="19" y1="120" x2="19" y2="207"></line><line svg-type="line" line="3" x1="19" y1="207" x2="364" y2="207"></line><line svg-type="line" line="4" x1="364" y1="207" x2="364" y2="120"></line><line svg-type="line" line="5" x1="364" y1="120" x2="336" y2="120"></line><polyline svg-type="line" line="0" points="35, 120 19, 120 19, 207 364, 207 364, 120 336, 120" class="hide"></polyline></g><g class="wire " id="wire-3" svg-comp="wire"><polyline svg-type="line" line="0" points="233, 120 233, 174 196, 174"></polyline></g><g class="wire " id="wire-2" svg-comp="wire"><line svg-type="line" line="1" x1="195" y1="65" x2="233" y2="65"></line><line svg-type="line" line="2" x1="233" y1="65" x2="233" y2="120"></line><line svg-type="line" line="3" x1="233" y1="120" x2="273" y2="120"></line><polyline svg-type="line" line="0" points="195, 65 233, 65 233, 120 273, 120" class="hide"></polyline></g><g class="wire " id="wire-1" svg-comp="wire"><polyline svg-type="line" line="0" points="121, 120 121, 174 156, 174"></polyline></g><g class="wire " id="wire-0" svg-comp="wire"><polyline svg-type="line" line="0" points="95, 120 121, 120 121, 65 155, 65"></polyline></g><rect class="dash hide" x="0" y="0" width="0" height="0" stroke-dasharray="3, 3" id="selection-rect"></rect><g class="ec " id="resistor-1" svg-comp="resistor" transform="translate(155 55)"><rect svg-type="body" x="0" y="0" width="40" height="20"></rect></g><g class="label" transform="translate(165 45)"><text font-size="15" x="0" y="0">R1</text></g><g class="ec " id="variable-resistor-1" svg-comp="resistor" transform="translate(156 154)"><rect svg-type="body" x="0" y="10" width="40" height="20"></rect><path class="thick no-fill" d="M 0,40 L 41,4.5 L 37,0 H45 V8 L 41,4.5"></path></g><g class="label" transform="translate(166 149)"><text font-size="15" x="0" y="0">VR1</text></g><g class="ec " id="3v3-0" svg-comp="power" transform="translate(35 80)"><circle svg-type="body" cx="30" cy="40" r="30"></circle><path class="no-fill" d="M 0,10 H 10"></path><path class="no-fill" d="M 65,10 H55 M 60,5 V15"></path><text x="5" y="48" class="middle">3V3</text></g><g class="ec selected" id="led-0" svg-comp="diode" transform="translate(273 90)"><path svg-type="body" d="M 0,0 L 60,30 L 0,60 Z"></path><line class="thick" x1="63" y1="0" x2="63" y2="60"></line><path class="thick" d="M 32,12 L 36.8,4.6 L 33,2 L 40,0 L 40,7.2 L 36.8,4.6"></path><path class="thick" d="M 45,19 L 49,13 L 45,10.2 L 52,8  L 52.9,15.5 L 49,13"></path></g><g class="tooltip hide" id="tooltip" transform="translate(286 124)"><rect x="0" y="0" rx="4" width="36" height="20"></rect><text font-size="11.55" x="4" y="11.55"></text></g><g class="h-node hide" id="highlighNode" svg-comp="h-node"><circle svg-type="node" r="5" cx="273" cy="120" node="0"></circle></g></svg>